<svg width="37" height="37" viewBox="0 0 37 37" fill="none" xmlns="http://www.w3.org/2000/svg">
<circle cx="18.5" cy="18.5" r="18.5" transform="matrix(-1 0 0 1 37 0)" fill="#4E0362"/>
<path d="M14.1306 18.4021C13.7377 18.7903 13.7338 19.4234 14.122 19.8163L20.4472 26.2188C20.8354 26.6117 21.4685 26.6155 21.8614 26.2274C22.2543 25.8392 22.2581 25.2061 21.87 24.8132L16.2476 19.1221L21.9386 13.4997C22.3315 13.1115 22.3354 12.4784 21.9472 12.0855C21.5591 11.6926 20.9259 11.6888 20.533 12.0769L14.1306 18.4021ZM17.0129 18.1267L14.8394 18.1135L14.8273 20.1135L17.0008 20.1267L17.0129 18.1267Z" fill="#E0FAE0"/>
</svg>
