<svg width="18" height="14" viewBox="0 0 18 14" fill="none" xmlns="http://www.w3.org/2000/svg">
<path d="M0.317934 6.71295L4.4655 8.0958L6.07086 12.7078C6.17358 13.0032 6.57792 13.1124 6.8463 12.9164L9.15822 11.2327C9.40056 11.0563 9.74575 11.0475 9.99901 11.2118L14.1689 13.9162C14.456 14.1026 14.8627 13.9621 14.9347 13.6522L17.9894 0.526311C18.068 0.187781 17.6956 -0.0946306 17.3348 0.0300401L0.313074 5.89594C-0.106987 6.04066 -0.103327 6.57193 0.317934 6.71295ZM5.81214 7.35967L13.918 2.89988C14.0637 2.81996 14.2136 2.99593 14.0885 3.09959L7.39878 8.65456C7.16364 8.85009 7.01196 9.11176 6.969 9.39578L6.74112 10.9044C6.71094 11.1058 6.3942 11.1258 6.33198 10.9309L5.45556 8.17989C5.35518 7.86613 5.50146 7.53097 5.81214 7.35967Z" fill="#C63264"/>
</svg>
