<svg width="21" height="14" viewBox="0 0 21 14" fill="none" xmlns="http://www.w3.org/2000/svg">
<path d="M20.1301 11.3402C19.5048 10.4567 18.769 9.70277 18.0728 8.90213C17.4448 8.18045 17.4052 7.7618 17.9101 6.92886C18.4611 6.01978 19.0537 5.14557 19.6097 4.24059C20.1288 3.39483 20.6594 2.55138 20.9325 1.53872C21.1057 0.894468 20.9525 0.6099 20.3917 0.497098C20.2951 0.477357 20.1952 0.476332 20.0968 0.476332L16.7695 0.471718C16.3597 0.464539 16.1331 0.675017 15.9882 1.1029C15.7925 1.68126 15.5908 2.25912 15.3577 2.81723C14.8288 4.08266 14.2382 5.3058 13.4101 6.34152C13.2275 6.56995 13.0256 6.85862 12.7205 6.73966C12.3387 6.57559 12.2262 5.83468 12.2325 5.58421L12.2293 1.06008C12.1553 0.413778 12.0336 0.12562 11.4889 0L8.03248 0.000769171C7.57111 0.000769171 7.33977 0.210734 7.09341 0.550679C6.9513 0.747057 6.90842 0.874472 7.20048 0.939589C7.77416 1.06777 8.09734 1.50514 8.18308 2.18272C8.32063 3.26536 8.31105 4.35236 8.23183 5.43936C8.20855 5.75675 8.16219 6.07336 8.05533 6.36972C7.88819 6.83555 7.61833 6.9304 7.26381 6.64378C6.94281 6.38434 6.71735 6.01824 6.49667 5.65061C5.66772 4.27084 5.00634 2.78288 4.46705 1.21929C4.31123 0.767567 4.04246 0.493765 3.63614 0.48633C2.63787 0.467615 1.63939 0.464539 0.641117 0.487356C0.0404581 0.500687 -0.138651 0.84422 0.105965 1.48565C1.19324 4.33467 2.40348 7.10448 3.98326 9.62765C4.79437 10.9226 5.72561 12.0657 6.92866 12.8758C8.29212 13.7941 9.75981 14.0705 11.3056 13.9854C12.0295 13.9454 12.2469 13.7236 12.2804 12.8738C12.303 12.2923 12.359 11.7142 12.6025 11.1918C12.8415 10.679 13.2034 10.5813 13.6206 10.9003C13.8293 11.06 14.0051 11.2633 14.1712 11.4776C14.5786 12.0026 14.9714 12.5436 15.3943 13.0509C15.9246 13.6867 16.5529 14.0623 17.3429 13.9857L20.401 13.9864C20.8938 13.9485 21.1493 13.2368 20.8663 12.589C20.6676 12.1352 20.4069 11.7312 20.1301 11.3402Z" fill="#C63264"/>
</svg>
