<svg width="15" height="14" viewBox="0 0 15 14" fill="none" xmlns="http://www.w3.org/2000/svg">
<path d="M7.62504 0C3.55831 0 0.250073 3.0877 0.250073 6.88333C0.250073 8.08407 0.586571 9.2638 1.22407 10.3017L0.0128237 13.6929C-0.0161761 13.7744 0.00482378 13.8637 0.0675735 13.9263C0.115573 13.9741 0.182073 14 0.250073 14C0.271322 14 0.292572 13.9974 0.313572 13.9923L4.2803 13.0181C5.3108 13.5081 6.46504 13.7667 7.62504 13.7667C11.6918 13.7667 15 10.679 15 6.88333C15 3.0877 11.6918 0 7.62504 0ZM12.227 10.0088L11.7875 10.4193C11.2325 10.9373 10.6133 11.2 9.94753 11.2C9.05003 11.2 8.08228 10.7217 7.07179 9.7783L4.5233 7.39993C3.72631 6.65607 3.23656 5.93343 3.06756 5.25187C2.86256 4.42423 3.12131 3.66613 3.83681 2.99857L4.27655 2.58813C4.5593 2.32423 5.01655 2.25937 5.3708 2.43437C6.03629 2.76313 6.72579 3.8402 6.80229 3.962C6.94029 4.18763 6.98254 4.42097 6.92304 4.62093C6.87754 4.77377 6.77504 4.89837 6.62604 4.98307C6.42404 5.1408 6.18729 5.33727 6.14554 5.3872C5.89155 5.73697 5.92054 6.00553 6.24779 6.3112L8.23828 8.169C8.56828 8.47723 8.85103 8.50267 9.23178 8.26187C9.28203 8.22523 9.49228 8.00427 9.66128 7.81573C9.78753 7.6209 9.99428 7.51427 10.2458 7.51427C10.4105 7.51427 10.5858 7.56093 10.7525 7.6496C10.8855 7.72263 12.0398 8.36617 12.3918 8.98707C12.5843 9.3268 12.5183 9.737 12.227 10.0088Z" fill="#C63264"/>
</svg>
