<svg width="22" height="22" viewBox="0 0 22 22" fill="none" xmlns="http://www.w3.org/2000/svg">
<path d="M11.1834 0C5.21885 0 0.366773 4.8521 0.366773 10.8167C0.366773 12.7035 0.860304 14.5574 1.7953 16.1883L0.0188081 21.5175C-0.023725 21.6454 0.00707488 21.7859 0.0991078 21.8841C0.169507 21.9593 0.26704 22 0.366773 22C0.39794 22 0.429106 21.996 0.459906 21.9879L6.27778 20.4571C7.78917 21.2271 9.48206 21.6333 11.1834 21.6333C17.1479 21.6333 22 16.7812 22 10.8167C22 4.8521 17.1479 0 11.1834 0ZM17.933 15.7282L17.2884 16.3731C16.4744 17.1871 15.5661 17.6 14.5897 17.6C13.2734 17.6 11.854 16.8483 10.372 15.3659L6.63418 11.6285C5.46525 10.4595 4.74695 9.32397 4.49909 8.25293C4.19842 6.95237 4.57792 5.76107 5.62731 4.71203L6.27228 4.06707C6.68698 3.65237 7.35761 3.55043 7.87717 3.82543C8.85323 4.34207 9.86449 6.0346 9.97669 6.226C10.1791 6.58057 10.2411 6.94723 10.1538 7.26147C10.0871 7.50163 9.93673 7.69743 9.71819 7.83053C9.42193 8.0784 9.0747 8.38713 9.01346 8.4656C8.64093 9.01523 8.68347 9.43727 9.16343 9.9176L12.0828 12.837C12.5668 13.3214 12.9815 13.3613 13.5399 12.9829C13.6136 12.9254 13.922 12.5781 14.1699 12.2819C14.355 11.9757 14.6583 11.8081 15.0271 11.8081C15.2688 11.8081 15.5258 11.8815 15.7704 12.0208C15.9654 12.1356 17.6583 13.1468 18.1746 14.1225C18.4569 14.6564 18.3601 15.301 17.933 15.7282Z" fill="black"/>
</svg>
